<svg data-v-0dd9719b="" version="1.0" xmlns="http://www.w3.org/2000/svg" xmlns:xlink="http://www.w3.org/1999/xlink" width="100%" height="100%" viewBox="0 0 162.000000 180.000000" preserveAspectRatio="xMidYMid meet" color-interpolation-filters="sRGB" style="margin: auto;">
	<rect data-v-0dd9719b="" x="0" y="0" width="100%" height="100%" fill="transparent" fill-opacity="1" class="background"></rect>
	<rect data-v-0dd9719b="" x="0" y="0" width="100%" height="100%" fill="url(#watermark)" fill-opacity="1" class="watermarklayer"></rect>
	<g data-v-0dd9719b="" class="iconmbgsvg" >
		<g fill="#8f34e7" hollow-target="textRect">
			<g transform="translate(6.084999084472656,0)" mask="url(#fb6987d8-3c6e-496a-9049-857316c1d792)">
				<g>
					<rect fill="#8f34e7" fill-opacity="0" stroke-width="2" x="0" y="0" width="150" height="179.32502062237734" class="image-rect"></rect>
					<svg x="0" y="0" width="150" height="179.32502062237734" filtersec="colorsb5080366006" class="image-svg-svg primary" style="overflow: visible;">
						<svg xmlns="http://www.w3.org/2000/svg" viewBox="0.009174585342407227 -0.001018524169921875 166.2369842529297 198.73704528808594">
							<title>资源 71</title>
							<g>
								<path d="M52.34 160.35c-4-5.46-7.43-10.11-11.61-15.82L80.15 116c4.2-3 9.29-5.38 12.33-9.32C94.66 103.89 94.1 99 94.76 95c-3.74-.44-8.68-2.65-11-1-18.51 12.49-36.83 25.37-54.53 39-11.13 8.59-12.2 24.9-3.76 35.87s22.79 13.69 34.59 5.43c25.5-17.83 50.82-35.93 75.77-54.52 14.23-10.6 14.64-29.36.56-40C111.06 60.62 85.38 41.87 59.1 24 42 12.45 20.75 25 19.93 46.41 19.37 61 19.82 75.53 19.82 91H.76c1-20.53-3.91-41.69 3.09-62C12.9 2.84 45.78-8.46 69 7.05c27.2 18.19 53.8 37.38 79.72 57.34C172.32 82.57 172 117 148.28 135c-25.54 19.42-51.72 38-78.17 56.19-19.72 13.54-46.6 8.21-60.76-10.8-13.82-18.56-11.56-47.29 6.45-61.69 18.71-15 38.44-28.7 58.25-42.21 12.31-8.4 28.82-4.55 37.1 7.28 8.53 12.18 6.88 28.36-5 37.48-17.23 13.22-35.09 25.57-53.81 39.1z" fill="#8f34e7"></path>
							</g>
						</svg>
					</svg>
					<!---->
				</g>
			</g>
			<g transform="translate(0,81.18751239776611)">
				<g data-gra="path-name" fill-rule="" class="tp-name">
					<g transform="scale(1)">
						<g>
							<path d="M10.07-16.48L6.05-16.48 0.14 0 3.58 0 4.61-3.06 11.77-3.06 12.88 0 16.55 0ZM5.44-5.53L7.96-13.06 8.19-13.06 10.9-5.53ZM27.18-5.96L30.4-5.96 30.4-16.48 27.18-16.48ZM23.5 0.24C23.5 0.24 23.53-2.38 23.53-2.87 21.27-2.87 19.71-4.07 19.71-6.43L19.71-16.48 16.58-16.48 16.58-5.96C16.58-1.74 19.69 0.24 23.5 0.24ZM51.25-16.48L30.98-16.48 30.98-13.39 51.25-13.39C54.35-13.39 56.71-11.91 56.71-8.24 56.71-4.57 54.35-2.75 51.25-2.75 47.55-2.75 45.9-5.18 45.9-8.59L45.9-9.53C45.9-9.53 42.7-9.53 42.7-9.53L42.7-8.66C42.7-3.34 45.76 0.24 51.25 0.24 56.12 0.24 59.88-2.57 59.88-8.24 59.88-13.65 56.12-16.48 51.25-16.48ZM35.95-11.3L35.95 0 39.12 0 39.12-11.3Z" transform="translate(-0.14000000059604645, 16.709999084472656)"></path>
						</g>
						<g data-gra="path-name-1" fill="#8f34e7" transform="translate(62.7400016784668,0)">
							<g transform="scale(1)">
								<path d="M1.44-16.48L1.44 0 8.24 0C13.25 0 15.44-3.58 15.44-8.24 15.44-12.92 13.25-16.48 8.24-16.48ZM7.2-13.39C10-13.39 12.1-12.31 12.1-8.24 12.1-4.14 10.03-3.11 7.23-3.11L4.64-3.11 4.64-13.39ZM28.99-13.39L28.99-16.48 16.8-16.48 16.8-13.39ZM28.99-6.78L28.99-9.7 16.8-9.7 16.8-6.78ZM16.8 0L28.99 0 28.99-3.11 16.8-3.11ZM38.72 0.24C43.41 0.24 45.95-2.52 46.49-5.93L43.27-5.93C42.72-3.88 41.05-2.54 38.63-2.54 35.4-2.54 33.36-5.39 33.36-8.47 33.36-11.72 35.64-13.91 38.58-13.91 41.38-13.91 42.84-12.33 43.31-10.38L46.49-10.38C46.02-14.43 42.84-16.71 38.37-16.71 33.36-16.71 30.25-12.92 30.25-8.24 30.25-3.58 33.1 0.24 38.72 0.24ZM51-13.94L51-16.48 47.8-16.48 47.8-13.94ZM47.8 0L50.98 0 50.98-11.77 47.8-11.77ZM60.83-2.14L63.02-2.14 67.75-10.55 67.87-10.55 67.87 0 71.04 0 71.04-16.48 67.82-16.48 62.12-5.96 62.03-5.96 56.38-16.48 53.2-16.48ZM53.2 0L56.28 0 56.28-6.47 53.2-12.26ZM81.69-16.48L77.67-16.48 71.76 0 75.2 0 79.58-13.06 79.81-13.06 84.5 0 88.17 0ZM92.09-4.92L92.09-16.48 88.89-16.48 88.89-4.92ZM88.89 0L100.87 0 100.87-3.11 88.89-3.11Z" transform="translate(-1.440000057220459, 16.709999084472656)"></path>
							</g>
						</g>
					</g>
				</g>
				<!---->
			</g>
		</g>
	</g>
	<mask id="fb6987d8-3c6e-496a-9049-857316c1d792">
		<g fill="white">
			<g>
				<rect fill-opacity="1" stroke-width="2" x="0" y="0" width="150" height="179.32502062237734" class="image-rect"></rect>
				<svg x="0" y="0" width="150" height="179.32502062237734" filtersec="colorsb5080366006" class="image-svg-svg primary" style="overflow: visible;">
					<svg xmlns="http://www.w3.org/2000/svg" viewBox="0.009174585342407227 -0.001018524169921875 166.2369842529297 198.73704528808594">
						<title>资源 71</title>
						<g>
							<path d="M52.34 160.35c-4-5.46-7.43-10.11-11.61-15.82L80.15 116c4.2-3 9.29-5.38 12.33-9.32C94.66 103.89 94.1 99 94.76 95c-3.74-.44-8.68-2.65-11-1-18.51 12.49-36.83 25.37-54.53 39-11.13 8.59-12.2 24.9-3.76 35.87s22.79 13.69 34.59 5.43c25.5-17.83 50.82-35.93 75.77-54.52 14.23-10.6 14.64-29.36.56-40C111.06 60.62 85.38 41.87 59.1 24 42 12.45 20.75 25 19.93 46.41 19.37 61 19.82 75.53 19.82 91H.76c1-20.53-3.91-41.69 3.09-62C12.9 2.84 45.78-8.46 69 7.05c27.2 18.19 53.8 37.38 79.72 57.34C172.32 82.57 172 117 148.28 135c-25.54 19.42-51.72 38-78.17 56.19-19.72 13.54-46.6 8.21-60.76-10.8-13.82-18.56-11.56-47.29 6.45-61.69 18.71-15 38.44-28.7 58.25-42.21 12.31-8.4 28.82-4.55 37.1 7.28 8.53 12.18 6.88 28.36-5 37.48-17.23 13.22-35.09 25.57-53.81 39.1z"></path>
						</g>
					</svg>
				</svg>
			</g>
		</g>
		<g transform="translate(-6.084999084472656,81.18751239776611)">
			<rect fill="black" fill-opacity="1" x="-3.5" y="-3.5" width="169.1699981689453" height="23.950002670288086"></rect>
			<rect fill="black" fill-opacity="1" x="-3.5" y="-3.5"></rect>
		</g>
		<g transform="translate(-6.084999084472656,81.18751239776611)" fill="black">
			<g data-gra="path-name" fill-rule="" class="tp-name">
				<g transform="scale(1)">
					<g>
						<path d="M10.07-16.48L6.05-16.48 0.14 0 3.58 0 4.61-3.06 11.77-3.06 12.88 0 16.55 0ZM5.44-5.53L7.96-13.06 8.19-13.06 10.9-5.53ZM27.18-5.96L30.4-5.96 30.4-16.48 27.18-16.48ZM23.5 0.24C23.5 0.24 23.53-2.38 23.53-2.87 21.27-2.87 19.71-4.07 19.71-6.43L19.71-16.48 16.58-16.48 16.58-5.96C16.58-1.74 19.69 0.24 23.5 0.24ZM51.25-16.48L30.98-16.48 30.98-13.39 51.25-13.39C54.35-13.39 56.71-11.91 56.71-8.24 56.71-4.57 54.35-2.75 51.25-2.75 47.55-2.75 45.9-5.18 45.9-8.59L45.9-9.53C45.9-9.53 42.7-9.53 42.7-9.53L42.7-8.66C42.7-3.34 45.76 0.24 51.25 0.24 56.12 0.24 59.88-2.57 59.88-8.24 59.88-13.65 56.12-16.48 51.25-16.48ZM35.95-11.3L35.95 0 39.12 0 39.12-11.3Z" transform="translate(-0.14000000059604645, 16.709999084472656)"></path>
					</g>
					<g data-gra="path-name-1" transform="translate(62.7400016784668,0)">
						<g transform="scale(1)">
							<path d="M1.44-16.48L1.44 0 8.24 0C13.25 0 15.44-3.58 15.44-8.24 15.44-12.92 13.25-16.48 8.24-16.48ZM7.2-13.39C10-13.39 12.1-12.31 12.1-8.24 12.1-4.14 10.03-3.11 7.23-3.11L4.64-3.11 4.64-13.39ZM28.99-13.39L28.99-16.48 16.8-16.48 16.8-13.39ZM28.99-6.78L28.99-9.7 16.8-9.7 16.8-6.78ZM16.8 0L28.99 0 28.99-3.11 16.8-3.11ZM38.72 0.24C43.41 0.24 45.95-2.52 46.49-5.93L43.27-5.93C42.72-3.88 41.05-2.54 38.63-2.54 35.4-2.54 33.36-5.39 33.36-8.47 33.36-11.72 35.64-13.91 38.58-13.91 41.38-13.91 42.84-12.33 43.31-10.38L46.49-10.38C46.02-14.43 42.84-16.71 38.37-16.71 33.36-16.71 30.25-12.92 30.25-8.24 30.25-3.58 33.1 0.24 38.72 0.24ZM51-13.94L51-16.48 47.8-16.48 47.8-13.94ZM47.8 0L50.98 0 50.98-11.77 47.8-11.77ZM60.83-2.14L63.02-2.14 67.75-10.55 67.87-10.55 67.87 0 71.04 0 71.04-16.48 67.82-16.48 62.12-5.96 62.03-5.96 56.38-16.48 53.2-16.48ZM53.2 0L56.28 0 56.28-6.47 53.2-12.26ZM81.69-16.48L77.67-16.48 71.76 0 75.2 0 79.58-13.06 79.81-13.06 84.5 0 88.17 0ZM92.09-4.92L92.09-16.48 88.89-16.48 88.89-4.92ZM88.89 0L100.87 0 100.87-3.11 88.89-3.11Z" transform="translate(-1.440000057220459, 16.709999084472656)"></path>
						</g>
					</g>
				</g>
			</g>
		</g>
	</mask>
	<defs v-gra="od"></defs>
</svg>